<svg width="32" height="33" viewBox="0 0 32 33" fill="none" xmlns="http://www.w3.org/2000/svg">
<path fill-rule="evenodd" clip-rule="evenodd" d="M10.9445 1.18246C10.6745 1.42029 10.6171 1.93176 10.8302 2.19993C11.0426 2.46697 11.5663 2.40474 11.6974 2.09682C11.8615 1.71079 11.843 1.56343 11.5896 1.2447C11.3207 0.90643 11.2638 0.900952 10.9445 1.18246ZM3.61446 5.06226C3.58911 5.16453 3.53696 5.42749 3.49866 5.6465C3.4062 6.17483 2.96356 6.67225 2.48519 6.78505C1.95188 6.91092 1.9454 7.35833 2.47526 7.48336C2.94469 7.59419 3.40687 8.11775 3.49866 8.64284C3.6167 9.31751 3.64886 9.39231 3.82104 9.39231C3.92176 9.39231 4.03666 9.16375 4.11148 8.81422C4.26792 8.08304 4.63999 7.61133 5.15633 7.48954C5.74693 7.35019 5.69723 6.96824 5.06063 6.75415C4.51861 6.57167 4.2399 6.17806 4.11684 5.42117C4.04158 4.95803 3.70078 4.71458 3.61446 5.06226ZM29.2969 5.76464C29.271 5.8669 29.219 6.18578 29.181 6.47334C29.0594 7.39598 28.1213 8.39631 27.3689 8.40586C27.2343 8.40755 27.0918 8.47497 27.0522 8.5556C26.9402 8.7836 27.22 9.11135 27.5266 9.11135C28.2844 9.11135 29.0676 10.0347 29.2111 11.0973C29.2749 11.5698 29.3472 11.7198 29.5269 11.7524C29.7226 11.788 29.7698 11.7038 29.8203 11.2296C29.939 10.1169 30.738 9.11135 31.5037 9.11135C31.7974 9.11135 32.0834 8.78332 31.9775 8.56783C31.9412 8.49394 31.7191 8.39252 31.4839 8.34251C30.6049 8.15568 30.0823 7.51286 29.8425 6.32303C29.7135 5.6833 29.3985 5.36091 29.2969 5.76464ZM17.9522 6.30716C17.7985 6.6686 17.9037 7.10056 18.1929 7.29526C18.6726 7.61821 19.2119 6.67562 18.8254 6.18944C18.6076 5.91536 18.0891 5.98518 17.9522 6.30716ZM4.06414 7.49291L3.80753 7.84115L3.54746 7.49291L3.28739 7.14467L3.54746 6.79643L3.80753 6.44819L4.06414 6.79643L4.32074 7.14467L4.06414 7.49291ZM30.0284 9.34287L29.54 9.95207L29.1073 9.39127C28.8693 9.08279 28.6206 8.83038 28.5545 8.83038C28.4886 8.83038 28.6769 8.53004 28.9731 8.16312L29.5118 7.49586L30.0143 8.1148L30.5168 8.73359L30.0284 9.34287ZM8.128 9.19535C5.37386 9.59487 5.3551 9.60007 5.22713 9.99327C4.94953 10.8465 3.66136 16.3232 3.66136 16.6501C3.66136 16.8569 3.74455 17.1416 3.84617 17.2829C4.0217 17.5271 4.01198 17.5398 3.65075 17.5407C2.9802 17.542 2.44522 17.8046 2.27973 18.2137C2.1952 18.4225 1.6898 20.0676 1.1566 21.8693C0.0955584 25.4548 0.0295642 25.9399 0.53831 26.4155C0.696316 26.5633 2.32227 27.1789 4.22326 27.8109L7.62547 28.9417L9.41208 28.6481C10.3948 28.4867 13.3092 28.006 15.8887 27.5799C18.4682 27.1539 22.4836 26.4911 24.8119 26.1072C27.5778 25.6512 29.1345 25.3357 29.3026 25.197C29.8366 24.757 29.8312 24.6139 29.1762 21.9173C28.8388 20.5278 28.5626 19.3265 28.5626 19.2479C28.5626 19.1693 28.841 19.0032 29.1812 18.8789C29.8882 18.6202 30.2377 18.2515 30.2377 17.7641C30.2377 17.3897 28.4173 11.1547 28.2212 10.8576C28.1533 10.7546 27.8883 10.6335 27.6322 10.5885C26.5115 10.391 11.7081 8.83192 11.0959 8.84681C10.7226 8.8558 9.38696 9.01271 8.128 9.19535ZM18.4883 10.3597C21.8835 10.7338 24.6835 11.0679 24.7106 11.1018C24.7377 11.136 24.3788 11.2491 23.913 11.3532C23.2309 11.5057 22.835 11.5105 21.8782 11.3777C18.4717 10.9052 11.8134 10.0929 10.6438 10.0071C9.82672 9.94727 9.39264 9.86719 9.52712 9.80103C10.0304 9.55367 12.6626 9.71775 18.4883 10.3597ZM10.9754 11.0105C13.1864 11.2753 16.7038 11.6917 18.792 11.9356C21.0901 12.2041 22.621 12.4412 22.6706 12.5362C22.7158 12.6228 22.7534 12.8672 22.7544 13.0797L22.7561 13.4661L20.0482 13.4669C15.5951 13.4683 9.75728 13.8496 6.17382 14.3729C5.49825 14.4717 4.92474 14.5293 4.89928 14.5013C4.87382 14.473 5.0441 13.6755 5.27782 12.7289C5.92012 10.1265 5.80666 10.3525 6.42384 10.4473C6.71629 10.4922 8.76448 10.7456 10.9754 11.0105ZM27.8153 11.8909C28.0082 12.1592 28.3394 13.0717 28.3394 13.3354C28.3394 13.4506 27.9292 13.4709 26.8598 13.4081C26.0461 13.3605 24.9686 13.3717 24.4656 13.4332C23.6023 13.5389 23.5476 13.5291 23.4901 13.2597C23.321 12.468 23.381 12.3769 24.1798 12.2121C27.2397 11.5812 27.5713 11.5518 27.8153 11.8909ZM28.4715 13.8685C28.5804 13.9958 29.5677 17.3714 29.5677 17.6167C29.5677 17.7289 29.5418 17.8208 29.5105 17.8208C29.479 17.8208 28.215 18.2325 26.7018 18.7359C25.1884 19.239 23.9251 19.6192 23.8943 19.5804C23.8636 19.5417 23.798 18.5137 23.7486 17.2958C23.6994 16.0779 23.6329 14.8138 23.6007 14.4865C23.5337 13.8026 23.5593 13.7845 24.7102 13.6997C25.6131 13.6331 28.3761 13.7571 28.4715 13.8685ZM22.8041 14.2036C22.8841 14.8309 23.2108 19.6857 23.1754 19.7201C23.1598 19.7357 22.4434 19.63 21.5836 19.4854C18.7145 19.0035 9.78072 17.5301 7.06714 17.0916C5.59317 16.8533 4.36942 16.6394 4.34765 16.6162C4.32588 16.593 4.40471 16.2096 4.52274 15.764C4.77958 14.7947 4.67907 14.8413 7.17881 14.5337C11.2662 14.0308 15.0038 13.8026 19.7082 13.7688L22.7459 13.747L22.8041 14.2036ZM0.147929 15.4271C-0.12766 15.8101 -0.00114365 16.3825 0.386222 16.5049C0.762869 16.6238 1.02796 16.4141 1.07118 15.963C1.1384 15.2617 0.523794 14.9047 0.147929 15.4271ZM8.39952 18.2667C9.33752 18.4195 9.38328 18.4413 9.02128 18.5628C8.57224 18.7134 7.56751 18.6131 6.67631 18.3288L6.06216 18.1328L6.72455 18.1173C7.08892 18.1088 7.84266 18.1759 8.39952 18.2667ZM5.62063 19.2009C7.0485 19.4631 7.73345 19.6446 7.72597 19.7588C7.71982 19.8518 7.70732 20.1334 7.69805 20.3845L7.68142 20.841H4.94562C3.44093 20.841 2.20982 20.8276 2.20982 20.8113C2.20971 20.7948 2.313 20.4339 2.4393 20.0094C2.66318 19.2565 3.13184 18.6325 3.38253 18.7536C3.44942 18.7857 4.45653 18.987 5.62063 19.2009ZM18.425 19.9288L23.5082 20.7725L25.6107 20.0735C26.7671 19.689 27.7235 19.3884 27.736 19.4053C27.8084 19.5037 28.3502 21.9277 28.3109 21.9773C28.2846 22.0102 27.6145 21.9428 26.8217 21.8274C23.1105 21.2875 18.503 20.964 12.4991 20.8221L8.43952 20.7261L8.50224 20.2393C8.5368 19.9717 8.58936 19.722 8.61904 19.6846C8.66672 19.6248 12.2952 19.1483 13.0519 19.1026C13.2114 19.0929 15.6293 19.4648 18.425 19.9288ZM6.82215 21.1441L7.58203 21.2344L7.51402 22.302C7.47662 22.8892 7.40571 24.3033 7.35658 25.4445C7.30745 26.5857 7.23531 27.5597 7.19611 27.6089C7.11293 27.7135 1.08446 25.7272 0.938632 25.5471C0.881904 25.477 1.09976 24.5413 1.45162 23.3439L2.06321 21.2625L2.66687 21.18C3.545 21.0601 5.94066 21.0393 6.82215 21.1441ZM17.8986 21.3336C21.7235 21.5505 27.6925 22.1559 28.3405 22.3925C28.4928 22.4481 28.9903 24.2259 28.8847 24.337C28.8611 24.3617 26.656 24.7391 23.9844 25.1757C21.3128 25.6121 16.6432 26.3792 13.6074 26.8802C10.5718 27.3813 8.06608 27.7635 8.03928 27.7298C7.98961 27.6673 8.3104 22.4811 8.41552 21.6488L8.47312 21.1922L11.9575 21.1932C13.874 21.1937 16.5475 21.2569 17.8986 21.3336ZM18.0662 29.6208C17.8128 29.9395 17.7942 30.0869 17.9584 30.4729C18.0894 30.7808 18.6132 30.843 18.8254 30.576C19.0386 30.3078 18.9813 29.7964 18.7112 29.5585C18.3918 29.277 18.335 29.2825 18.0662 29.6208ZM26.3333 31.8591C26.1662 32.2519 26.1902 32.4959 26.4219 32.7597C26.6874 33.0618 26.9202 33.054 27.1495 32.7353C27.3666 32.4335 27.3894 31.9938 27.2003 31.756C26.9881 31.4889 26.4642 31.5512 26.3333 31.8591Z" fill="#C6BBE8"/>
</svg>
