<svg xmlns="http://www.w3.org/2000/svg" width="241" height="150" viewBox="0 0 241 150" fill="none">
  <rect x="81.5586" y="16.9492" width="128.161" height="132.727" rx="15.1383" fill="#0080FF"/>
  <rect x="44.4707" y="16.876" width="121.555" height="132.8" rx="15.1383" fill="#004D99"/>
  <path d="M81.5586 32.9557C81.5586 29.0969 84.6867 25.9688 88.5455 25.9688H160.923C169.284 25.9688 176.061 32.7464 176.061 41.1071V125.517C176.061 133.877 169.284 140.655 160.923 140.655H88.5455C84.6867 140.655 81.5586 137.527 81.5586 133.668V32.9557Z" fill="#003366"/>
  <path d="M102.922 125.568H127.827C128.679 125.568 129.462 126.033 129.871 126.781L136.258 138.47C137.106 140.022 135.983 141.915 134.214 141.915H105.251C103.965 141.915 102.922 140.873 102.922 139.586V125.568Z" fill="#F4C430"/>
  <path d="M103.639 109.461H128.544C129.395 109.461 130.179 109.926 130.588 110.673L136.975 122.362C137.823 123.914 136.7 125.808 134.931 125.808H105.968C104.681 125.808 103.639 124.765 103.639 123.479V109.461Z" fill="#F4C430"/>
  <path d="M102.922 139.628H129.064C129.16 139.628 129.255 139.64 129.348 139.664C130.651 139.998 130.41 141.917 129.064 141.917H105.21C103.947 141.917 102.922 140.892 102.922 139.628Z" fill="#C39D26"/>
  <path d="M103.639 123.522H129.781C129.877 123.522 129.972 123.534 130.065 123.558C131.368 123.892 131.126 125.811 129.781 125.811H105.927C104.663 125.811 103.639 124.786 103.639 123.522Z" fill="#C39D26"/>
  <path d="M102.922 125.568H127.12C128.308 125.568 129.306 126.463 129.435 127.644L130.515 137.523C130.718 139.385 128.751 140.713 127.1 139.829L104.075 127.494C103.365 127.113 102.922 126.374 102.922 125.568Z" fill="#C39D26"/>
  <path d="M103.639 109.461H127.837C129.025 109.461 130.023 110.356 130.152 111.537L131.232 121.415C131.435 123.278 129.468 124.606 127.817 123.721L104.791 111.386C104.082 111.006 103.639 110.266 103.639 109.461Z" fill="#C39D26"/>
  <path d="M72.2969 125.568H96.4951C97.6834 125.568 98.6812 126.463 98.8102 127.644L99.8898 137.523C100.093 139.385 98.1263 140.713 96.4748 139.829L73.4496 127.494C72.7399 127.113 72.2969 126.374 72.2969 125.568Z" fill="#C39D26"/>
  <path d="M134.057 125.568H163.609C164.63 125.568 165.533 126.234 165.834 127.21L169.444 138.899C169.907 140.397 168.787 141.915 167.219 141.915H136.386C135.099 141.915 134.057 140.873 134.057 139.586V125.568Z" fill="#F4C430"/>
  <path d="M134.775 109.461H159.681C160.532 109.461 161.316 109.926 161.724 110.673L168.111 122.362C168.959 123.914 167.836 125.808 166.068 125.808H137.104C135.818 125.808 134.775 124.765 134.775 123.479V109.461Z" fill="#F4C430"/>
  <path d="M134.312 139.301H167.106C167.509 139.301 167.889 139.486 168.137 139.804C168.807 140.663 168.195 141.916 167.106 141.916H136.624C135.248 141.916 134.172 140.73 134.306 139.361L134.312 139.301Z" fill="#C39D26"/>
  <path d="M135.031 123.195H167.825C168.228 123.195 168.608 123.381 168.856 123.698C169.526 124.557 168.914 125.811 167.825 125.811H137.343C135.967 125.811 134.891 124.625 135.025 123.256L135.031 123.195Z" fill="#C39D26"/>
  <path d="M72.0391 125.568H96.9442C97.7958 125.568 98.5796 126.033 98.9879 126.781L105.375 138.47C106.223 140.022 105.1 141.915 103.331 141.915H74.368C73.0818 141.915 72.0391 140.873 72.0391 139.586V125.568Z" fill="#F4C430"/>
  <path d="M72.7598 109.461H97.6649C98.5165 109.461 99.3003 109.926 99.7087 110.673L106.096 122.362C106.944 123.914 105.821 125.808 104.052 125.808H75.0887C73.8025 125.808 72.7598 124.765 72.7598 123.479V109.461Z" fill="#F4C430"/>
  <path d="M72.0391 139.628H98.1813C98.2771 139.628 98.3725 139.64 98.4653 139.664C99.7687 139.998 99.5268 141.917 98.1813 141.917H74.3276C73.0637 141.917 72.0391 140.892 72.0391 139.628Z" fill="#C39D26"/>
  <path d="M72.7598 123.522H98.902C98.9978 123.522 99.0932 123.534 99.186 123.558C100.489 123.892 100.247 125.811 98.902 125.811H75.0483C73.7844 125.811 72.7598 124.786 72.7598 123.522Z" fill="#C39D26"/>
  <path d="M72.0391 125.568H96.7574C97.7054 125.568 98.5588 126.143 98.9154 127.021L102.835 136.678C103.617 138.604 101.674 140.512 99.7623 139.695L73.4534 128.461C72.5956 128.095 72.0391 127.252 72.0391 126.319V125.568Z" fill="#C39D26"/>
  <path d="M72.7598 109.461H97.4781C98.4261 109.461 99.2795 110.036 99.6361 110.914L103.556 120.57C104.338 122.497 102.395 124.405 100.483 123.588L74.1741 112.353C73.3163 111.987 72.7598 111.144 72.7598 110.212V109.461Z" fill="#C39D26"/>
  <path d="M56.0917 126.883C56.4808 126.079 57.2951 125.568 58.1881 125.568H71.0906C71.9836 125.568 72.7979 126.079 73.187 126.883L78.8441 138.572C79.5926 140.118 78.466 141.915 76.7478 141.915H52.531C50.8127 141.915 49.6861 140.118 50.4346 138.572L56.0917 126.883Z" fill="#FFF2AD"/>
  <path d="M56.8105 110.775C57.1995 109.972 58.0139 109.461 58.9069 109.461H71.8093C72.7023 109.461 73.5167 109.972 73.9057 110.775L79.5629 122.464C80.3114 124.011 79.1847 125.808 77.4665 125.808H53.2497C51.5315 125.808 50.4048 124.011 51.1533 122.464L56.8105 110.775Z" fill="#FFF2AD"/>
  <path d="M87.2285 126.883C87.6175 126.079 88.4318 125.568 89.3248 125.568H102.227C103.12 125.568 103.935 126.079 104.324 126.883L109.981 138.572C110.729 140.118 109.603 141.915 107.884 141.915H83.6677C81.9495 141.915 80.8228 140.118 81.5713 138.572L87.2285 126.883Z" fill="#FFF2AD"/>
  <path d="M87.9472 110.775C88.3362 109.972 89.1506 109.461 90.0436 109.461H102.946C103.839 109.461 104.653 109.972 105.042 110.775L110.7 122.464C111.448 124.011 110.321 125.808 108.603 125.808H84.3864C82.6682 125.808 81.5415 124.011 82.2901 122.464L87.9472 110.775Z" fill="#FFF2AD"/>
  <path d="M118.363 126.883C118.752 126.079 119.567 125.568 120.46 125.568H133.362C134.255 125.568 135.069 126.079 135.458 126.883L141.116 138.572C141.864 140.118 140.737 141.915 139.019 141.915H114.802C113.084 141.915 111.958 140.118 112.706 138.572L118.363 126.883Z" fill="#FFF2AD"/>
  <path d="M119.082 110.775C119.471 109.972 120.285 109.461 121.178 109.461H134.081C134.974 109.461 135.788 109.972 136.177 110.775L141.834 122.464C142.583 124.011 141.456 125.808 139.738 125.808H115.521C113.803 125.808 112.676 124.011 113.425 122.464L119.082 110.775Z" fill="#FFF2AD"/>
  <path d="M112.363 139.3C114.733 134.396 126.145 125.568 134.822 125.568H120.46C119.566 125.568 118.752 126.08 118.363 126.884L112.363 139.3Z" fill="white"/>
  <path d="M113.084 123.192C115.454 118.288 126.865 109.461 135.542 109.461H121.181C120.287 109.461 119.472 109.972 119.084 110.777L113.084 123.192Z" fill="white"/>
  <path d="M81.2285 139.3C83.5983 134.396 94.7546 125.568 103.432 125.568H89.3252C88.4317 125.568 87.6169 126.08 87.2282 126.884L81.2285 139.3Z" fill="white"/>
  <path d="M50.0938 139.3C52.4635 134.396 64.1302 125.568 72.8073 125.568H58.1904C57.2969 125.568 56.4822 126.08 56.0934 126.884L50.0938 139.3Z" fill="white"/>
  <path d="M50.8125 123.192C53.1823 118.288 64.849 109.461 73.5261 109.461H58.9091C58.0157 109.461 57.2009 109.972 56.8122 110.777L50.8125 123.192Z" fill="white"/>
  <path d="M87.6055 94.7192C87.6055 94.076 88.1268 93.5547 88.77 93.5547H113.201C113.627 93.5547 114.019 93.7871 114.223 94.1608L120.941 106.456C121.79 108.008 120.666 109.902 118.898 109.902H88.77C88.1268 109.902 87.6055 109.38 87.6055 108.737V94.7192Z" fill="#F4C430"/>
  <path d="M117.309 94.7192C117.309 94.076 117.83 93.5547 118.473 93.5547H144.848C145.274 93.5547 145.665 93.7871 145.87 94.1608L152.588 106.456C153.436 108.008 152.313 109.902 150.544 109.902H118.473C117.83 109.902 117.309 109.38 117.309 108.737V94.7192Z" fill="#F4C430"/>
  <path d="M92.2012 107.941H118.343C118.439 107.941 118.535 107.953 118.627 107.977C119.931 108.311 119.689 110.23 118.343 110.23H94.4898C93.2258 110.23 92.2012 109.205 92.2012 107.941Z" fill="#C39D26"/>
  <path d="M86.5859 93.5547H109.819C111.356 93.5547 112.471 95.0174 112.065 96.4997L110.261 103.077C109.887 104.439 108.398 105.158 107.1 104.603L88.0003 96.4472C87.1425 96.0809 86.5859 95.2381 86.5859 94.3054V93.5547Z" fill="#C39D26"/>
  <path d="M119.583 108.23C119.689 107.683 120.168 107.288 120.725 107.288H152.723C153.014 107.288 153.28 107.454 153.407 107.715C153.9 108.726 153.164 109.904 152.04 109.904H120.67C119.937 109.904 119.386 109.235 119.527 108.516L119.583 108.23Z" fill="#C39D26"/>
  <path d="M100.859 77.208H128.515C128.94 77.208 129.332 77.4404 129.537 77.8141L137.196 91.8322C137.62 92.6082 137.059 93.555 136.174 93.555H102.024C101.381 93.555 100.859 93.0337 100.859 92.3905V77.208Z" fill="#F4C430"/>
  <path d="M103.636 91.9438C103.82 91.5313 104.23 91.2656 104.681 91.2656H136.189C136.604 91.2656 136.986 91.4903 137.188 91.8527C137.613 92.6154 137.062 93.5542 136.189 93.5542H104.681C103.853 93.5542 103.299 92.7006 103.636 91.9438Z" fill="#C39D26"/>
  <path d="M71.914 94.8691C72.303 94.0653 73.1174 93.5547 74.0104 93.5547H86.9129C87.8058 93.5547 88.6202 94.0653 89.0092 94.8691L94.6664 106.558C95.4149 108.105 94.2882 109.902 92.57 109.902H68.3532C66.635 109.902 65.5083 108.105 66.2569 106.558L71.914 94.8691Z" fill="#FFF2AD"/>
  <path d="M103.56 94.8691C103.95 94.0653 104.764 93.5547 105.657 93.5547H118.559C119.452 93.5547 120.267 94.0653 120.656 94.8691L126.313 106.558C127.061 108.105 125.935 109.902 124.217 109.902H99.9997C98.2815 109.902 97.1548 108.105 97.9033 106.558L103.56 94.8691Z" fill="#FFF2AD"/>
  <path d="M87.2265 78.5224C87.6155 77.7186 88.4299 77.208 89.3229 77.208H102.225C103.118 77.208 103.933 77.7186 104.322 78.5224L109.979 90.2115C110.727 91.7581 109.601 93.555 107.883 93.555H83.6657C81.9475 93.555 80.8208 91.7581 81.5694 90.2115L87.2265 78.5224Z" fill="#FFF2AD"/>
  <path d="M65.916 107.286C68.2858 102.382 79.6973 93.5547 88.3744 93.5547H74.0127C73.1192 93.5547 72.3044 94.0659 71.9157 94.8703L65.916 107.286Z" fill="white"/>
  <path d="M97.5605 107.286C99.9303 102.382 111.087 93.5547 119.764 93.5547H105.657C104.764 93.5547 103.949 94.0659 103.56 94.8703L97.5605 107.286Z" fill="white"/>
  <path d="M81.2285 90.9395C83.5983 86.0354 95.0098 77.208 103.687 77.208H89.3252C88.4317 77.208 87.6169 77.7192 87.2282 78.5237L81.2285 90.9395Z" fill="white"/>
  <rect x="43.4958" y="21.6062" width="127.907" height="123.411" rx="10.4804" stroke="#66B3FF" stroke-width="9.3159"/>
  <rect x="22.0078" y="16.9482" width="16.8292" height="132.727" rx="2.32898" fill="#004D99"/>
  <rect x="10.3555" y="33.7002" width="11.651" height="99.2228" rx="2.32898" fill="#0080FF"/>
  <rect y="69.7812" width="10.3565" height="28.3494" rx="2.32898" fill="#CCE6FF"/>
  <path d="M38.8379 46.5869H45.3404C48.8988 46.5869 51.7835 49.4716 51.7835 53.03C51.7835 56.5883 48.8988 59.473 45.3404 59.473H38.8379V46.5869Z" fill="#CCE6FF"/>
  <path d="M38.8379 103.285H45.3404C48.8988 103.285 51.7835 106.17 51.7835 109.728C51.7835 113.287 48.8988 116.171 45.3404 116.171H38.8379V103.285Z" fill="#CCE6FF"/>
  <path d="M133.246 122.332H223.172L223.27 131.82H133.344L133.246 122.332Z" fill="#10522C"/>
  <rect x="143.113" y="122.403" width="89.9258" height="9.29546" fill="#54D68A"/>
  <rect x="143.113" y="130.371" width="89.9258" height="1.32792" fill="#10522C"/>
  <path d="M143.113 128.379H233.039V127.715H143.113L143.113 128.379Z" fill="#10522C"/>
  <rect x="125.242" y="131.72" width="89.9258" height="9.99752" fill="#10522C"/>
  <path d="M133.807 131.697H223.732V140.993H133.807V131.697Z" fill="#54D68A"/>
  <rect x="133.807" y="139.666" width="89.9258" height="1.32792" fill="#10522C"/>
  <path d="M133.807 137.009H223.732V137.673H133.807V137.009Z" fill="#10522C"/>
  <rect x="130.252" y="140.813" width="89.9258" height="9.18544" fill="#10522C"/>
  <rect x="140.014" y="140.993" width="89.9258" height="8.98069" fill="#54D68A"/>
  <rect x="140.014" y="148.96" width="89.9258" height="1.03849" fill="#10522C"/>
  <path d="M140.014 146.305H229.939V146.969H140.014L140.014 146.305Z" fill="#10522C"/>
  <rect x="180.326" y="121.073" width="13.954" height="10.6234" fill="url(#paint0_linear_3251_29737)"/>
  <rect x="169.469" y="131.697" width="13.954" height="9.29546" fill="url(#paint1_linear_3251_29737)"/>
  <rect x="177.223" y="140.993" width="13.954" height="9.00687" fill="url(#paint2_linear_3251_29737)"/>
  <path d="M123.795 113.123H213.721L213.817 122.404H123.891L123.795 113.123Z" fill="#10522C"/>
  <rect x="133.566" y="113.107" width="89.9258" height="9.29546" fill="#54D68A"/>
  <rect x="133.566" y="121.079" width="89.9258" height="1.32792" fill="#10522C"/>
  <path d="M133.566 119.083H223.492V118.419H133.566L133.566 119.083Z" fill="#10522C"/>
  <mask id="mask0_3251_29737" style="mask-type:alpha" maskUnits="userSpaceOnUse" x="133" y="107" width="91" height="7">
    <path d="M138.733 109.882L142.045 110.259C167.7 113.186 193.648 112.395 219.085 107.912L223.496 110.947C195.051 114.155 166.362 114.558 137.845 112.151L133.566 111.79L138.733 109.882Z" fill="#76EDC5"/>
  </mask>
  <g mask="url(#mask0_3251_29737)">
    <path d="M138.733 109.882L142.045 110.259C167.7 113.186 193.648 112.395 219.085 107.912L223.496 110.947C195.051 114.155 166.362 114.558 137.845 112.151L133.566 111.79L138.733 109.882Z" fill="#54D68A"/>
    <path d="M132.79 111.779L176.108 113.425L221.165 111.115L218.86 112.268L176.109 113.752L128.934 112.616L132.79 111.779Z" fill="#10522C"/>
    <ellipse cx="219.615" cy="107.132" rx="2.32567" ry="1.99188" fill="#10522C"/>
    <ellipse cx="138.992" cy="108.461" rx="2.32567" ry="1.99188" fill="#10522C"/>
    <ellipse cx="221.938" cy="110.452" rx="1.54904" ry="1.32672" fill="#10522C"/>
    <ellipse cx="135.117" cy="111.781" rx="1.54904" ry="1.32672" fill="#10522C"/>
  </g>
  <rect x="170.777" y="111.78" width="13.954" height="10.6234" fill="url(#paint3_linear_3251_29737)"/>
  <mask id="mask1_3251_29737" style="mask-type:alpha" maskUnits="userSpaceOnUse" x="183" y="56" width="47" height="33">
    <path d="M229.417 60.4847C232.066 65.4238 224.621 74.9825 212.643 81.9576C200.664 88.9327 188.645 90.7087 185.618 85.9893L185.615 85.9909L183.095 81.7021L185.393 80.364L185.504 80.5532C187.386 75.5523 193.642 69.2282 202.224 64.2304C210.807 59.2327 219.411 56.9041 224.712 57.7215L224.601 57.5323L226.899 56.1942L229.42 60.483L229.417 60.4847Z" fill="#DFAD31"/>
  </mask>
  <g mask="url(#mask1_3251_29737)">
    <path d="M229.417 60.4847C232.066 65.4238 224.621 74.9825 212.643 81.9576C200.664 88.9327 188.645 90.7087 185.618 85.9893L185.615 85.9909L183.095 81.7021L185.393 80.364L185.504 80.5532C187.386 75.5523 193.642 69.2282 202.224 64.2304C210.807 59.2327 219.411 56.9041 224.712 57.7215L224.601 57.5323L226.899 56.1942L229.42 60.483L229.417 60.4847Z" fill="#DFAD31"/>
    <rect width="53.5152" height="16.0847" transform="matrix(0.864162 -0.503215 0.506677 0.862135 181.432 82.4795)" fill="url(#paint4_linear_3251_29737)"/>
  </g>
  <ellipse cx="25.3449" cy="10.281" rx="25.3449" ry="10.281" transform="matrix(0.864162 -0.503215 0.506677 0.862135 177.887 72.8369)" fill="#FCE874"/>
  <mask id="mask2_3251_29737" style="mask-type:alpha" maskUnits="userSpaceOnUse" x="182" y="53" width="46" height="32">
    <ellipse cx="25.3449" cy="10.281" rx="25.3449" ry="10.281" transform="matrix(0.864162 -0.503215 0.506677 0.862135 177.887 72.8379)" fill="#FCE874"/>
  </mask>
  <g mask="url(#mask2_3251_29737)">
    <path opacity="0.7" d="M174.23 74.4863L185.864 67.7121L237.936 59.5525L226.303 66.3268L174.23 74.4863Z" fill="#FFF8D0"/>
    <path d="M208.72 75.2785C212.751 72.9311 216.033 70.1306 218.074 67.4807C219.094 66.157 219.821 64.8483 220.164 63.6335C220.508 62.4166 220.477 61.2466 219.903 60.27C219.329 59.2935 218.32 58.6933 217.086 58.3952C215.854 58.0977 214.351 58.0876 212.692 58.3236C209.371 58.796 205.311 60.2712 201.28 62.6186C197.248 64.966 193.967 67.7665 191.926 70.4163C190.906 71.7401 190.178 73.0487 189.835 74.2636C189.491 75.4805 189.522 76.6505 190.096 77.6271C190.67 78.6036 191.68 79.2038 192.914 79.5018C194.146 79.7994 195.648 79.8095 197.307 79.5735C200.628 79.101 204.689 77.6258 208.72 75.2785Z" fill="#FCE874" stroke="url(#paint5_radial_3251_29737)" stroke-width="1.08688"/>
  </g>
  <mask id="mask3_3251_29737" style="mask-type:alpha" maskUnits="userSpaceOnUse" x="210" y="4" width="27" height="23">
    <path d="M234.244 25.9644C232.031 28.4444 225.166 26.2896 218.812 21.0969C212.458 15.9042 208.997 9.62083 211.01 6.97721L211.009 6.976L212.885 4.70088L214.104 5.69705L214.021 5.79743C217.2 5.81139 222.015 7.97242 226.568 11.6931C231.121 15.4137 234.188 19.6943 234.821 22.7947L234.903 22.6943L236.122 23.6905L234.246 25.9656L234.244 25.9644Z" fill="#DFAD31"/>
  </mask>
  <g mask="url(#mask3_3251_29737)">
    <path d="M234.244 25.9644C232.031 28.4444 225.166 26.2896 218.812 21.0969C212.458 15.9042 208.997 9.62083 211.01 6.97721L211.009 6.976L212.885 4.70088L214.104 5.69705L214.021 5.79743C217.2 5.81139 222.015 7.97242 226.568 11.6931C231.121 15.4137 234.188 19.6943 234.821 22.7947L234.903 22.6943L236.122 23.6905L234.246 25.9656L234.244 25.9644Z" fill="#DFAD31"/>
    <rect width="31.6822" height="9.53549" transform="matrix(0.774327 0.632786 -0.636281 0.771458 212.109 3.94043)" fill="url(#paint6_linear_3251_29737)"/>
  </g>
  <ellipse cx="15.0048" cy="6.09485" rx="15.0048" ry="6.09485" transform="matrix(0.774327 0.632786 -0.636281 0.771458 216.764 0.000976562)" fill="#FCE874"/>
  <mask id="mask4_3251_29737" style="mask-type:alpha" maskUnits="userSpaceOnUse" x="212" y="3" width="25" height="22">
    <ellipse cx="15.0048" cy="6.09485" rx="15.0048" ry="6.09485" transform="matrix(0.774327 0.632786 -0.636281 0.771458 216.764 0.00195312)" fill="#FCE874"/>
  </mask>
  <g mask="url(#mask4_3251_29737)">
    <path opacity="0.7" d="M215.094 -1.68164L221.265 3.36151L236.516 30.4877L230.345 25.4446L215.094 -1.68164Z" fill="#FFF8D0"/>
    <path d="M221.735 17.5573C223.874 19.3049 226.111 20.5449 228.01 21.1296C228.958 21.4217 229.838 21.5553 230.587 21.4956C231.337 21.4358 231.983 21.1784 232.411 20.6605C232.838 20.1427 232.965 19.4612 232.878 18.7173C232.791 17.9747 232.488 17.1415 232.016 16.2724C231.07 14.5326 229.412 12.5895 227.274 10.8419C225.135 9.0943 222.898 7.85423 220.999 7.26952C220.051 6.97742 219.171 6.84387 218.422 6.90357C217.672 6.96337 217.025 7.22077 216.598 7.73862C216.171 8.25647 216.043 8.93798 216.131 9.68183C216.218 10.4244 216.521 11.2576 216.993 12.1268C217.939 13.8666 219.597 15.8097 221.735 17.5573Z" fill="#FCE874" stroke="url(#paint7_radial_3251_29737)" stroke-width="0.643892"/>
  </g>
  <defs>
    <linearGradient id="paint0_linear_3251_29737" x1="187.303" y1="121.073" x2="187.303" y2="131.697" gradientUnits="userSpaceOnUse">
      <stop stop-color="#FFF9D8" stop-opacity="0"/>
      <stop offset="0.203125" stop-color="#FFF9D8"/>
    </linearGradient>
    <linearGradient id="paint1_linear_3251_29737" x1="176.446" y1="131.697" x2="176.446" y2="140.993" gradientUnits="userSpaceOnUse">
      <stop stop-color="#FFF9D8" stop-opacity="0"/>
      <stop offset="0.130208" stop-color="#FFF9D8"/>
    </linearGradient>
    <linearGradient id="paint2_linear_3251_29737" x1="184.2" y1="140.993" x2="184.2" y2="150" gradientUnits="userSpaceOnUse">
      <stop stop-color="#FFF9D8" stop-opacity="0"/>
      <stop offset="0.114583" stop-color="#FFF9D8"/>
    </linearGradient>
    <linearGradient id="paint3_linear_3251_29737" x1="177.754" y1="111.78" x2="177.754" y2="122.404" gradientUnits="userSpaceOnUse">
      <stop stop-color="#FFF9D8" stop-opacity="0"/>
      <stop offset="0.203125" stop-color="#FFF9D8"/>
    </linearGradient>
    <linearGradient id="paint4_linear_3251_29737" x1="57.1715" y1="16.0847" x2="26.7576" y2="16.0847" gradientUnits="userSpaceOnUse">
      <stop stop-color="#FFE59D"/>
      <stop offset="0.56707" stop-color="#FDFDFD" stop-opacity="0"/>
    </linearGradient>
    <radialGradient id="paint5_radial_3251_29737" cx="0" cy="0" r="1" gradientUnits="userSpaceOnUse" gradientTransform="translate(205 68.9485) rotate(-23.9179) scale(18.1497 43.9893)">
      <stop stop-color="#D9A102"/>
      <stop offset="1" stop-color="#EBB213" stop-opacity="0"/>
    </radialGradient>
    <linearGradient id="paint6_linear_3251_29737" x1="33.8469" y1="9.53549" x2="15.8411" y2="9.53549" gradientUnits="userSpaceOnUse">
      <stop stop-color="#FFE59D"/>
      <stop offset="0.56707" stop-color="#FDFDFD" stop-opacity="0"/>
    </linearGradient>
    <radialGradient id="paint7_radial_3251_29737" cx="0" cy="0" r="1" gradientUnits="userSpaceOnUse" gradientTransform="translate(224.504 14.1996) rotate(45.5654) scale(10.7352 26.1019)">
      <stop stop-color="#D9A102"/>
      <stop offset="1" stop-color="#EBB213" stop-opacity="0"/>
    </radialGradient>
  </defs>
</svg>