<svg width="32" height="34" viewBox="0 0 32 34" fill="none" xmlns="http://www.w3.org/2000/svg">
<path fill-rule="evenodd" clip-rule="evenodd" d="M19.6186 4.23924C20.5756 5.78557 20.4776 8.08874 19.3985 9.40688L18.9917 9.90407L19.2768 9.10982C19.6566 8.0525 19.5796 6.73015 19.0793 5.71626C18.8715 5.29517 18.1535 4.4059 17.3568 3.58276L15.9905 2.17132L14.7168 3.52587C14.0163 4.27088 13.349 5.11509 13.234 5.40202C12.965 6.07353 12.9668 7.23903 13.2379 7.92308C13.3751 8.26937 14.543 9.60616 16.5265 11.6875L19.6023 14.9152L18.3561 14.0074C16.5395 12.6842 13.4455 10.2212 12.8995 9.66379C12.6402 9.39881 12.2743 8.83429 12.0867 8.40918C11.789 7.73449 11.7536 7.48669 11.8076 6.45967C11.8931 4.83392 12.1787 4.32876 14.2493 2.1397L15.9932 0.295898L17.6375 1.99529C18.5418 2.9299 19.4333 3.9396 19.6186 4.23924ZM8.17874 5.06425C9.16173 5.34944 10.2563 6.68826 10.2466 7.59354C10.2444 7.80134 10.1677 7.73261 9.97313 7.34865C9.66586 6.74169 9.02129 6.1938 8.33119 5.95278C8.07226 5.86238 7.27092 5.78845 6.55037 5.78845H5.2403L5.29166 7.35469C5.33889 8.79403 5.37657 8.97727 5.75707 9.61785C6.02696 10.0723 6.38781 10.4374 6.79404 10.6668L7.41715 11.0188L6.86329 10.9238C6.09701 10.7922 5.26648 10.1574 4.8594 9.39228C4.55448 8.81899 4.51112 8.53999 4.46253 6.83541L4.408 4.922L6.05104 4.92285C6.95469 4.92329 7.91217 4.98686 8.17874 5.06425ZM27.5642 6.63337C27.5642 7.57462 27.4933 8.56554 27.4066 8.83562C27.0671 9.89324 26.1487 10.7594 25.1943 10.922L24.7256 11.0019L25.2374 10.7061C26.3252 10.0778 26.7334 9.10016 26.7334 7.12278V5.75652L25.2316 5.81013C23.8475 5.8595 23.6769 5.89792 23.0524 6.30054C22.6673 6.5489 22.2364 6.98429 22.0538 7.30978L21.7325 7.88238L21.8247 7.37692C22.0158 6.32926 22.8448 5.38236 23.8256 5.09168C24.0921 5.0127 25.0424 4.94221 25.9372 4.93498L27.5642 4.922V6.63337ZM7.63276 12.8077C7.9799 12.9209 8.47838 13.2019 8.74049 13.432L9.21726 13.8505L8.38643 13.5586C7.78603 13.3478 7.34002 13.2868 6.77841 13.339C5.50577 13.4571 4.81478 13.8782 3.23821 15.4961L1.80354 16.9685L3.01804 18.2419C3.68586 18.9421 4.48579 19.6434 4.79543 19.8C5.47778 20.1452 6.59797 20.1732 7.31775 19.8629C7.64869 19.7202 8.94044 18.4955 10.9349 16.4332C14.4145 12.8355 14.4134 12.8727 10.8941 17.7626C8.54205 21.0307 7.90649 21.4824 5.84125 21.3538C4.3695 21.2619 3.85218 20.9383 1.77114 18.8072L0 16.9938L1.68931 15.2277C2.62272 14.2519 3.68129 13.2899 4.05489 13.0779C5.16361 12.4486 6.2751 12.3646 7.63276 12.8077ZM27.6959 12.9579C28.2607 13.22 28.8978 13.7696 30.2254 15.1396L32 16.9708L30.3014 18.7495C28.1822 20.9683 27.4875 21.3845 25.9026 21.3845C24.9978 21.3845 24.715 21.3198 24.0075 20.9511C23.5502 20.7127 23.0572 20.3793 22.9122 20.21C22.6569 19.912 22.6683 19.9128 23.2717 20.2406C23.7471 20.4987 24.1245 20.5803 24.8641 20.5846C26.4115 20.5936 26.9747 20.2906 28.7092 18.5166L30.2004 16.9913L28.9862 15.7114C28.3183 15.0074 27.5227 14.2964 27.218 14.1312C26.5301 13.758 25.3173 13.739 24.6434 14.0907C24.384 14.2261 22.7757 15.7763 21.0692 17.5357C19.1189 19.5467 18.1477 20.4665 18.454 20.0126C20.057 17.6367 20.5224 16.9697 21.5771 15.536C22.857 13.7966 23.2088 13.4295 24.0222 12.9855C25.142 12.374 26.4181 12.3645 27.6959 12.9579ZM14.3405 20.4334C16.9133 22.3286 19.2037 24.248 19.5554 24.8034C20.0583 25.5973 20.2742 26.3845 20.2668 27.3968C20.2562 28.8728 19.8113 29.6586 17.7669 31.8135L16.011 33.6642L14.3055 31.8928C12.178 29.6826 11.7789 28.9581 11.7789 27.3052C11.7789 26.3617 11.8409 26.0666 12.1944 25.3289C12.423 24.8519 12.7291 24.3492 12.8746 24.2118C13.1183 23.9818 13.1158 24.0111 12.8433 24.5859C12.6211 25.0542 12.547 25.4795 12.546 26.2935C12.5439 27.8489 12.8588 28.4681 14.5793 30.2916L15.9911 31.7878L17.2184 30.5212C18.9154 28.7702 19.2546 27.9952 18.9601 26.542C18.8133 25.8184 18.6845 25.6594 15.674 22.4826C13.9505 20.6641 12.6339 19.2295 12.7482 19.2948C12.8624 19.36 13.579 19.8724 14.3405 20.4334ZM6.61987 23.3987C5.62581 24.0562 5.3605 24.7212 5.34929 26.5832L5.34015 28.0995L6.48153 28.1413C8.30638 28.2083 9.3348 27.7653 9.93976 26.6511C10.1595 26.2466 10.2509 26.1628 10.2505 26.3666C10.249 26.8954 9.74409 27.8255 9.20837 28.286C8.52366 28.8748 7.63122 29.0702 5.89401 29.0121L4.50935 28.9659L4.51156 27.0886C4.51348 25.4283 4.54936 25.1413 4.82186 24.606C5.25829 23.7482 6.24932 23.0075 6.99428 22.9821C7.16901 22.9761 7.03761 23.1226 6.61987 23.3987ZM25.8432 23.2464C26.5577 23.5848 27.2194 24.4166 27.4136 25.2205C27.4963 25.5638 27.5642 26.5696 27.5642 27.4555V29.0664L25.7295 29.012C24.167 28.9656 23.8087 28.91 23.3144 28.6381C22.6696 28.2834 22.1451 27.631 21.9061 26.8866C21.644 26.0701 21.7288 25.9209 22.0709 26.5966C22.2822 27.0138 22.6233 27.3816 23.0615 27.6647C23.6758 28.0615 23.8515 28.1008 25.2316 28.15L26.7334 28.2036V26.8373C26.7334 26.0858 26.6625 25.2501 26.5758 24.9801C26.3447 24.2604 25.8194 23.5882 25.2374 23.2677C24.5575 22.8931 25.0603 22.8755 25.8432 23.2464Z" fill="#C6BBE8"/>
</svg>
